/* XPM */
static char * bottom_right_inactive_xpm[] = {
"5 5 4 1",
" 	c None",
".	c #C7C7D3",
"+	c #FBFBFC",
"@	c #BCBBC3",
"  .+@",
"  .+@",
"...+@",
"++++@",
"@@@@@"};
