/* XPM */
static char * bottom_left_active_xpm[] = {
"5 5 4 1",
" 	c None",
".	c #706F7F",
"+	c #F8F8FA",
"@	c #8889A1",
".+@  ",
".+@  ",
".+@@@",
".++++",
"....."};
